<svg width="836" height="213" viewBox="0 0 836 213" fill="none" xmlns="http://www.w3.org/2000/svg">
<path fill-rule="evenodd" clip-rule="evenodd" d="M835.716 117.28C835.716 117.584 835.505 117.83 835.244 117.83C827.921 117.83 824.018 119.716 817.777 122.73C817.289 122.966 816.787 123.209 816.268 123.458C815.398 123.875 814.409 123.617 813.42 123.026C812.42 122.429 811.329 121.438 810.192 120.197C807.915 117.712 805.366 114.129 802.878 110.379C801.21 107.864 799.558 105.258 798.028 102.843C797.275 101.656 796.553 100.515 795.872 99.4546C794.836 97.8412 793.897 96.413 793.092 95.2777C792.28 94.1312 791.631 93.3216 791.174 92.9135C778.945 82.0162 761.857 90.8898 758.93 106.238C758.209 110.019 757.431 112.859 756.584 114.942C755.739 117.021 754.807 118.389 753.757 119.167C751.614 120.754 749.233 119.717 746.812 118.201C746.089 117.749 745.355 117.25 744.603 116.738C742.751 115.479 740.791 114.146 738.639 113.267C735.66 112.049 732.386 111.745 728.731 113.874C727.616 114.524 726.044 116.075 724.283 118.097C722.536 120.103 720.644 122.52 718.895 124.846C717.149 127.168 715.549 129.393 714.38 131.019L714.376 131.025C713.792 131.837 713.314 132.502 712.98 132.953C712.814 133.176 712.678 133.355 712.581 133.474C712.536 133.529 712.484 133.589 712.436 133.635L712.435 133.636C712.419 133.651 712.36 133.708 712.279 133.744C712.247 133.758 712.105 133.819 711.937 133.744C711.714 133.646 711.646 133.414 711.633 133.293C711.05 127.851 708.43 121.984 704.74 117.697C701.048 113.407 696.358 110.778 691.649 111.622C684.03 112.988 679.629 118.347 675.962 124.794C674.788 126.856 673.703 129.005 672.611 131.168C671.986 132.406 671.358 133.649 670.71 134.884C668.941 138.252 667.042 141.512 664.698 144.244C664.408 144.582 664.085 144.798 663.73 144.876C663.377 144.953 663.037 144.884 662.726 144.737C662.125 144.454 661.561 143.848 661.061 143.234C660.805 142.92 660.552 142.584 660.309 142.262L660.306 142.259C660.062 141.935 659.827 141.624 659.599 141.344C659.369 141.062 659.155 140.823 658.955 140.641C658.752 140.456 658.588 140.352 658.458 140.309C656.689 139.72 654.314 139.585 651.905 139.737C649.503 139.89 647.11 140.324 645.323 140.845C642.457 141.68 638.819 143.877 634.757 146.676C632.552 148.196 630.258 149.866 627.913 151.574C625.925 153.022 623.9 154.497 621.859 155.93C617.442 159.033 613.013 161.897 608.972 163.68C604.947 165.455 601.208 166.204 598.221 164.922C595.938 163.941 593.922 162.894 592.026 161.88C591.693 161.702 591.364 161.525 591.038 161.35C589.503 160.524 588.035 159.735 586.534 159.027C582.912 157.319 579.12 156.097 573.908 156.097C571.511 156.097 570.159 156.694 569.262 157.433C568.807 157.807 568.453 158.231 568.129 158.672C567.988 158.865 567.855 159.057 567.72 159.253L567.657 159.344C567.502 159.568 567.343 159.795 567.176 160.011C566.84 160.446 566.456 160.856 565.951 161.15C565.444 161.446 564.844 161.609 564.095 161.602C562.62 161.587 560.526 160.911 557.297 159.239C552.475 156.741 548.145 152.741 543.868 148.592C543.368 148.107 542.869 147.62 542.37 147.133C538.581 143.437 534.79 139.739 530.644 136.887C529.288 135.954 526.89 133.918 523.861 131.346C522.805 130.449 521.673 129.488 520.481 128.485C515.85 124.589 510.284 120.037 504.717 116.151C499.141 112.259 493.603 109.063 489.021 107.844C486.731 107.235 484.72 107.131 483.078 107.642C481.455 108.148 480.17 109.26 479.307 111.159C476.707 116.884 476.891 123.185 477.079 129.621C477.094 130.124 477.109 130.627 477.122 131.131C477.306 138.032 477.239 145.023 473.181 151.102C467.53 159.569 463.551 170.042 463.551 181.06C463.551 183.861 462.851 192.16 461.798 199.402C461.272 203.022 460.653 206.414 459.98 208.737C459.647 209.886 459.284 210.838 458.879 211.419C458.676 211.709 458.42 211.971 458.1 212.064C457.748 212.166 457.42 212.037 457.152 211.777C454.584 209.283 450.305 208.048 445.129 207.437C440.701 206.915 435.703 206.856 430.707 206.797C429.886 206.787 429.065 206.777 428.246 206.765C422.467 206.682 416.812 206.497 412.27 205.461C407.755 204.432 404.161 202.525 402.749 198.822C401.872 196.522 401.506 194.299 401.252 192.278C401.194 191.814 401.141 191.365 401.091 190.929C400.918 189.44 400.764 188.114 400.448 186.928C400.049 185.435 399.406 184.228 398.159 183.331C396.89 182.419 394.951 181.795 391.905 181.609C387.59 181.344 384.666 180.451 382.682 178.933C380.674 177.396 379.686 175.262 379.161 172.686C378.709 170.465 378.594 167.867 378.467 165.006C378.449 164.593 378.43 164.174 378.41 163.75C378.252 160.368 378.011 156.598 377.181 152.485C377.047 151.822 376.91 150.841 376.755 149.727C376.71 149.402 376.663 149.065 376.614 148.722C376.396 147.184 376.134 145.48 375.789 143.933C375.44 142.371 375.019 141.034 374.507 140.19C374.253 139.772 374 139.516 373.756 139.393C373.528 139.278 373.27 139.26 372.946 139.407C365.1 142.962 357.032 145.45 348.939 147.946L348.419 148.107C342.025 150.079 337.636 151.146 334.538 151.304C331.423 151.464 329.512 150.708 328.198 148.914C327.557 148.04 327.082 146.951 326.666 145.684C326.25 144.418 325.884 142.94 325.476 141.28L325.425 141.072C324.615 137.777 323.615 133.703 321.72 128.846C320.082 124.645 317.809 121.766 315.216 119.188C314.055 118.033 312.834 116.943 311.573 115.817C311.422 115.682 311.269 115.546 311.117 115.409C309.698 114.14 308.236 112.816 306.785 111.313C305.731 110.221 304.07 109.078 302.116 107.864C301.258 107.331 300.33 106.776 299.381 106.209C298.216 105.512 297.02 104.797 295.885 104.082C293.801 102.767 291.805 101.379 290.286 99.9063C288.78 98.4476 287.657 96.8254 287.475 95.0215C287.109 91.3955 285.877 89.7241 284.3 89.1205C282.654 88.4904 280.471 88.9513 278.095 90.0561C273.369 92.2542 268.286 96.802 266.194 98.7525C263.642 101.131 261.118 103.451 258.627 105.739C240.383 122.501 223.939 137.61 211.882 162.199L211.792 162.383C210.687 164.639 206.849 172.476 203.129 177.523C202.171 178.824 201.206 179.959 200.285 180.769C199.378 181.566 198.445 182.11 197.562 182.088C196.617 182.064 195.867 181.403 195.353 180.181C194.849 178.985 194.537 177.191 194.431 174.709C194.111 167.259 191.76 159.295 188.721 151.561C186.347 145.52 183.569 139.655 181.037 134.308C180.327 132.81 179.637 131.353 178.981 129.944C166.611 103.403 152.899 76.0574 131.388 58.5574C129.828 57.2877 128.432 56.1814 127.167 55.178C123.796 52.505 121.346 50.5622 119.141 48.2072C116.088 44.9457 113.501 40.8964 109.513 33.0523C109.218 32.473 108.922 31.8896 108.625 31.3032C104.555 23.2742 100.206 14.6948 94.8433 8.77802C91.9742 5.61232 88.8359 3.23446 85.3207 2.11088C81.8121 0.989401 77.8934 1.10628 73.4406 2.99325C71.8894 3.65054 70.2302 4.98398 68.5417 6.75022C66.8579 8.51155 65.1703 10.6761 63.5609 12.9596C60.9346 16.6854 58.5388 20.6941 56.7183 23.74C56.3058 24.4303 55.9227 25.0712 55.5733 25.6481C42.5732 47.11 25.9161 63.8451 9.06268 80.7774C6.34881 83.5041 3.62976 86.2358 0.920102 88.9932C0.723935 89.1928 0.426022 89.1693 0.254757 88.9408C0.0834928 88.7122 0.103634 88.365 0.299801 88.1654C3.01764 85.3997 5.7417 82.6626 8.45794 79.9334C25.3155 62.9954 41.8751 46.3569 54.8028 25.0143C55.1472 24.4457 55.5265 23.8111 55.9363 23.1254C57.7563 20.0799 60.1794 16.0255 62.8321 12.262C64.4583 9.95487 66.1794 7.7444 67.9117 5.93235C69.6393 4.12522 71.4036 2.68697 73.1182 1.96039C77.7373 0.00298045 81.8561 -0.136148 85.5702 1.051C89.2778 2.23605 92.5476 4.73146 95.4918 7.97995C100.955 14.0084 105.37 22.7184 109.42 30.7113C109.724 31.3093 110.025 31.9034 110.324 32.492C114.298 40.3077 116.829 44.2459 119.779 47.397C121.93 49.6945 124.301 51.5751 127.642 54.2247C128.916 55.2349 130.331 56.3568 131.928 57.6563C153.644 75.3232 167.448 102.894 179.809 129.419C180.46 130.815 181.146 132.263 181.852 133.754C184.387 139.106 187.188 145.02 189.579 151.104C192.635 158.882 195.044 166.996 195.373 174.654C195.477 177.085 195.78 178.701 196.199 179.697C196.607 180.665 197.087 180.976 197.582 180.989C198.14 181.003 198.858 180.647 199.717 179.892C200.561 179.149 201.476 178.08 202.414 176.807C206.071 171.844 209.872 164.085 210.978 161.827L211.063 161.653C223.217 136.868 239.812 121.623 258.048 104.871C260.538 102.583 263.06 100.267 265.604 97.8943C267.694 95.946 272.875 91.3007 277.746 89.0354C280.169 87.9085 282.619 87.3202 284.594 88.0763C286.639 88.8589 288.019 91.0091 288.411 94.8931C288.549 96.2614 289.43 97.6482 290.889 99.0613C292.333 100.461 294.26 101.807 296.334 103.115C297.484 103.84 298.643 104.533 299.784 105.214C300.727 105.778 301.658 106.333 302.56 106.894C304.51 108.106 306.264 109.303 307.412 110.491C308.835 111.966 310.273 113.27 311.691 114.537C311.843 114.674 311.996 114.81 312.148 114.946C313.406 116.069 314.647 117.177 315.828 118.352C318.485 120.994 320.864 123.996 322.579 128.391C324.502 133.323 325.519 137.463 326.329 140.76L326.382 140.978C326.793 142.648 327.149 144.078 327.547 145.291C327.944 146.503 328.373 147.462 328.915 148.2C329.964 149.632 331.529 150.358 334.496 150.207C337.481 150.054 341.78 149.018 348.177 147.044L348.677 146.89C356.784 144.39 364.808 141.915 372.604 138.382C373.14 138.139 373.657 138.145 374.131 138.385C374.59 138.616 374.965 139.044 375.276 139.555C375.893 140.57 376.348 142.072 376.701 143.656C377.058 145.254 377.326 147 377.545 148.542C377.596 148.903 377.645 149.251 377.691 149.583C377.844 150.687 377.973 151.612 378.099 152.233C378.949 156.445 379.193 160.294 379.352 163.69C379.372 164.119 379.391 164.541 379.409 164.954C379.537 167.831 379.648 170.316 380.079 172.432C380.565 174.819 381.447 176.673 383.2 178.014C384.977 179.374 387.703 180.25 391.955 180.511C395.069 180.702 397.191 181.344 398.654 182.396C400.139 183.464 400.9 184.921 401.348 186.602C401.691 187.884 401.859 189.335 402.033 190.842C402.082 191.264 402.131 191.691 402.185 192.119C402.435 194.106 402.786 196.213 403.611 198.376C404.82 201.545 407.977 203.363 412.451 204.383C416.896 205.396 422.467 205.583 428.258 205.667C429.072 205.678 429.89 205.688 430.709 205.698C435.702 205.756 440.749 205.816 445.224 206.344C450.413 206.956 454.951 208.208 457.756 210.933C457.844 211.019 457.871 210.998 457.872 210.997C457.905 210.988 458 210.936 458.147 210.726C458.438 210.308 458.758 209.518 459.086 208.386C459.734 206.149 460.344 202.828 460.868 199.218C461.918 191.999 462.608 183.77 462.608 181.06C462.608 169.735 466.695 159.03 472.437 150.427C476.265 144.691 476.364 138.078 476.18 131.165C476.166 130.649 476.15 130.13 476.135 129.61C475.946 123.232 475.75 116.641 478.474 110.645C479.463 108.466 480.967 107.162 482.834 106.58C484.682 106.005 486.863 106.143 489.231 106.773C493.964 108.032 499.608 111.304 505.202 115.208C510.805 119.119 516.397 123.693 521.033 127.594C522.251 128.619 523.4 129.595 524.465 130.499C527.473 133.053 529.81 135.037 531.124 135.941C535.341 138.841 539.195 142.602 542.976 146.291C543.476 146.779 543.974 147.265 544.471 147.747C548.752 151.9 552.991 155.806 557.68 158.235C560.89 159.897 562.834 160.49 564.103 160.503C564.725 160.509 565.173 160.375 565.529 160.167C565.888 159.958 566.181 159.656 566.476 159.275C566.624 159.084 566.768 158.878 566.923 158.654C567.075 158.434 567.238 158.196 567.412 157.959C567.764 157.479 568.175 156.981 568.717 156.535C569.812 155.634 571.37 154.998 573.908 154.998C579.267 154.998 583.181 156.26 586.888 158.008C588.412 158.727 589.904 159.529 591.44 160.355C591.764 160.53 592.09 160.705 592.419 160.881C594.31 161.892 596.299 162.925 598.547 163.891C601.2 165.03 604.663 164.405 608.638 162.652C612.595 160.907 616.963 158.087 621.372 154.989C623.374 153.583 625.397 152.109 627.391 150.658C629.757 148.935 632.081 147.243 634.277 145.73C638.335 142.934 642.08 140.657 645.095 139.779C646.943 139.24 649.396 138.796 651.853 138.64C654.303 138.485 656.8 138.614 658.717 139.252C659.012 139.35 659.287 139.548 659.536 139.775C659.788 140.005 660.039 140.288 660.282 140.587C660.524 140.883 660.768 141.207 661.008 141.525L661.017 141.536C661.262 141.861 661.504 142.181 661.746 142.478C662.241 143.087 662.685 143.532 663.08 143.718C663.266 143.806 663.42 143.826 663.556 143.796C663.689 143.767 663.848 143.679 664.031 143.466C666.295 140.828 668.148 137.657 669.905 134.311C670.535 133.111 671.155 131.883 671.778 130.651C672.88 128.468 673.991 126.269 675.175 124.187C678.905 117.631 683.503 111.971 691.506 110.536C696.616 109.62 701.59 112.485 705.406 116.918C708.973 121.062 711.592 126.646 712.421 132.024C712.736 131.594 713.154 131.014 713.653 130.319L713.659 130.311C714.828 128.686 716.433 126.453 718.186 124.122C719.941 121.788 721.85 119.347 723.621 117.314C725.378 115.297 727.045 113.628 728.31 112.891C732.243 110.599 735.79 110.937 738.952 112.229C741.194 113.146 743.282 114.565 745.161 115.843C745.892 116.341 746.593 116.817 747.258 117.233C749.71 118.767 751.612 119.453 753.251 118.239C754.092 117.616 754.926 116.453 755.732 114.471C756.537 112.492 757.296 109.74 758.01 106C761.076 89.9187 778.935 80.624 791.746 92.0405C792.299 92.5332 793.008 93.433 793.82 94.578C794.639 95.7344 795.589 97.18 796.627 98.7962C797.315 99.8677 798.041 101.014 798.795 102.204C800.322 104.614 801.962 107.201 803.624 109.707C806.108 113.451 808.618 116.974 810.837 119.395C811.948 120.607 812.964 121.519 813.85 122.048C814.746 122.584 815.419 122.676 815.909 122.441C816.431 122.191 816.938 121.946 817.43 121.708C823.672 118.692 827.73 116.731 835.244 116.731C835.505 116.731 835.716 116.977 835.716 117.28Z" fill="white"/>
</svg>
